<svg width="221" height="64" viewBox="0 0 221 64" fill="none" xmlns="http://www.w3.org/2000/svg">
<path d="M215.212 25.424C216.384 25.4423 217.361 24.5062 217.267 23.3378C217.095 21.1906 216.603 19.0771 215.806 17.0669C214.747 14.398 213.169 11.9633 211.163 9.90182C209.156 7.8404 206.76 6.19262 204.111 5.05257C202.107 4.19042 199.989 3.63141 197.826 3.3906C196.668 3.26171 195.706 4.20039 195.686 5.36506C195.666 6.53295 196.6 7.48289 197.758 7.63914C199.36 7.85534 200.927 8.28851 202.416 8.92916C204.553 9.84891 206.486 11.1783 208.105 12.8413C209.724 14.5044 210.997 16.4687 211.851 18.6219C212.443 20.1135 212.825 21.6756 212.991 23.2645C213.113 24.4336 214.037 25.4056 215.212 25.424Z" fill="url(#paint0_linear_36_2)"/>
<path d="M207.687 24.5671C208.695 24.1824 209.352 23.1712 209.113 22.119C208.598 19.8481 207.483 17.8224 205.914 16.1635C204.456 14.6227 202.261 13.3412 200.153 12.3052C198.975 11.7256 197.565 12.2867 197.049 13.4948C196.544 14.6774 197.091 16.0239 198.27 16.5379C199.696 17.1597 201.068 17.8588 202.132 18.9834C203.192 20.1029 203.932 21.6295 204.551 23.1636C205.053 24.4073 206.434 25.0451 207.687 24.5671Z" fill="url(#paint1_linear_36_2)"/>
<rect x="27.9822" y="52.0256" width="3.99761" height="20.7324" rx="1.9988" transform="rotate(-114.418 27.9822 52.0256)" fill="#C4C4C4"/>
<rect x="32.8862" y="58.5005" width="3.90241" height="16.9478" rx="1.95121" transform="rotate(-115.032 32.8862 58.5005)" fill="#02C9DE"/>
<path d="M43.4092 32.8494C44.4797 33.2473 45.6814 32.7036 45.9667 31.5978C46.777 28.4574 46.814 25.1561 46.0599 21.9804C45.1461 18.1318 43.1115 14.6406 40.2135 11.9483C37.3154 9.25602 33.6841 7.48355 29.7788 6.85504C25.8734 6.22653 21.8694 6.77022 18.273 8.41734C14.6766 10.0645 11.6494 12.7411 9.57421 16.1086C7.49902 19.4762 6.46904 23.3835 6.61451 27.3365C6.75997 31.2894 8.07436 35.1105 10.3915 38.3164C12.3034 40.9617 14.8271 43.0902 17.7343 44.5281C18.758 45.0344 19.9546 44.4797 20.3526 43.4092C20.7505 42.3387 20.1969 41.1599 19.1872 40.6262C17.0414 39.4919 15.176 37.8757 13.7435 35.8937C11.9056 33.3507 10.863 30.3199 10.7476 27.1844C10.6322 24.0489 11.4492 20.9496 13.0952 18.2784C14.7413 15.6072 17.1425 13.4841 19.9952 12.1776C22.8478 10.8711 26.0239 10.4398 29.1216 10.9384C32.2194 11.4369 35.0998 12.8429 37.3985 14.9784C39.6972 17.1139 41.3111 19.8832 42.0359 22.9359C42.6009 25.3152 42.6061 27.7834 42.0633 30.149C41.8078 31.2622 42.3387 32.4514 43.4092 32.8494Z" fill="#C4C4C4"/>
<g filter="url(#filter0_d_36_2)">
<path d="M25.8951 32.3339C23.3031 31.3817 21.9737 28.5085 22.9259 25.9164C23.8782 23.3244 26.7514 21.995 29.3434 22.9472C31.9355 23.8994 33.2648 26.7726 32.3126 29.3647C31.3604 31.9567 28.4872 33.2861 25.8951 32.3339ZM28.4731 25.3162C27.1894 24.8446 25.7665 25.503 25.2949 26.7867C24.8234 28.0704 25.4817 29.4933 26.7654 29.9649C28.0491 30.4365 29.472 29.7781 29.9436 28.4944C30.4152 27.2107 29.7568 25.7878 28.4731 25.3162Z" fill="#01C9DE"/>
</g>
<g filter="url(#filter1_d_36_2)">
<mask id="path-7-inside-1_36_2" fill="white">
<path d="M23.5638 36.4071C18.3797 34.5027 15.721 28.7563 17.6254 23.5722C19.5298 18.3881 25.2762 15.7294 30.4603 17.6338C35.6444 19.5382 38.3031 25.2846 36.3987 30.4687C34.4943 35.6529 28.7479 38.3116 23.5638 36.4071ZM30.0266 18.8146C25.4946 17.1497 20.471 19.474 18.8062 24.006C17.1413 28.538 19.4656 33.5615 23.9976 35.2264C28.5295 36.8912 33.5531 34.567 35.2179 30.035C36.8828 25.503 34.5585 20.4795 30.0266 18.8146Z"/>
</mask>
<path d="M23.5638 36.4071C18.3797 34.5027 15.721 28.7563 17.6254 23.5722C19.5298 18.3881 25.2762 15.7294 30.4603 17.6338C35.6444 19.5382 38.3031 25.2846 36.3987 30.4687C34.4943 35.6529 28.7479 38.3116 23.5638 36.4071ZM30.0266 18.8146C25.4946 17.1497 20.471 19.474 18.8062 24.006C17.1413 28.538 19.4656 33.5615 23.9976 35.2264C28.5295 36.8912 33.5531 34.567 35.2179 30.035C36.8828 25.503 34.5585 20.4795 30.0266 18.8146Z" fill="#01C9DE"/>
<path d="M23.5638 36.4071C18.3797 34.5027 15.721 28.7563 17.6254 23.5722C19.5298 18.3881 25.2762 15.7294 30.4603 17.6338C35.6444 19.5382 38.3031 25.2846 36.3987 30.4687C34.4943 35.6529 28.7479 38.3116 23.5638 36.4071ZM30.0266 18.8146C25.4946 17.1497 20.471 19.474 18.8062 24.006C17.1413 28.538 19.4656 33.5615 23.9976 35.2264C28.5295 36.8912 33.5531 34.567 35.2179 30.035C36.8828 25.503 34.5585 20.4795 30.0266 18.8146Z" stroke="#DEEFF3" stroke-width="2" stroke-dasharray="2 2" mask="url(#path-7-inside-1_36_2)"/>
</g>
<path d="M57.8384 36.5094H55.436V23.3141H64.436C65.3423 23.3141 66.1938 23.4899 66.9907 23.8415C67.7876 24.1852 68.4829 24.6579 69.0767 25.2594C69.6704 25.8532 70.1392 26.5524 70.4829 27.3571C70.8267 28.154 70.9985 29.0055 70.9985 29.9118V36.5094H68.5962V29.9118C68.5962 29.3337 68.4868 28.7907 68.2681 28.2829C68.0493 27.7751 67.7524 27.3337 67.3774 26.9587C67.0024 26.5758 66.561 26.2751 66.0532 26.0563C65.5532 25.8298 65.0142 25.7126 64.436 25.7048H57.8384V36.5094ZM89.5962 27.5094C89.5962 28.0954 89.4868 28.6423 89.2681 29.1501C89.0493 29.6579 88.7485 30.1032 88.3657 30.486C87.9907 30.861 87.5454 31.1579 87.0298 31.3766C86.522 31.5954 85.979 31.7048 85.4009 31.7048H76.2017C76.3735 32.0563 76.5884 32.3805 76.8462 32.6774C77.104 32.9743 77.3931 33.2282 77.7134 33.4391C78.0337 33.6501 78.3813 33.8141 78.7563 33.9313C79.1392 34.0485 79.5376 34.1071 79.9517 34.1071H87.8032V36.5094H79.9517C79.0454 36.5016 78.1938 36.3258 77.397 35.9821C76.6001 35.6305 75.9048 35.1579 75.311 34.5641C74.7251 33.9626 74.2603 33.2633 73.9165 32.4665C73.5728 31.6696 73.4009 30.818 73.4009 29.9118C73.4009 29.0055 73.5728 28.154 73.9165 27.3571C74.2603 26.5602 74.7251 25.8649 75.311 25.2712C75.9048 24.6696 76.6001 24.1969 77.397 23.8532C78.1938 23.5016 79.0454 23.3219 79.9517 23.3141H85.4009C85.979 23.3141 86.522 23.4235 87.0298 23.6423C87.5454 23.861 87.9907 24.1618 88.3657 24.5446C88.7485 24.9196 89.0493 25.361 89.2681 25.8688C89.4868 26.3766 89.5962 26.9235 89.5962 27.5094ZM85.4009 29.3141C85.6431 29.3141 85.8735 29.2673 86.0923 29.1735C86.311 29.0798 86.5024 28.9508 86.6665 28.7868C86.8306 28.6227 86.9595 28.4313 87.0532 28.2126C87.147 27.9938 87.1938 27.7594 87.1938 27.5094C87.1938 27.2673 87.147 27.0368 87.0532 26.818C86.9595 26.5993 86.8306 26.4079 86.6665 26.2438C86.5024 26.0798 86.311 25.9508 86.0923 25.8571C85.8735 25.7555 85.6431 25.7048 85.4009 25.7048H79.9517C79.4204 25.7048 78.9204 25.7985 78.4517 25.986C77.9907 26.1735 77.5767 26.4313 77.2095 26.7594C76.8501 27.0798 76.5493 27.4626 76.3071 27.9079C76.0728 28.3454 75.9204 28.8141 75.8501 29.3141H85.4009ZM107.292 36.5094H103.87L98.7251 31.5407L93.686 36.5094H90.2524L97.0728 29.9352L90.2524 23.3141H93.686L107.292 36.5094ZM107.292 23.3141L101.584 28.8805L99.8618 27.3454L103.87 23.3141H107.292ZM123.428 37.1071C123.428 37.693 123.315 38.2399 123.088 38.7477C122.87 39.2555 122.569 39.7008 122.186 40.0837C121.811 40.4665 121.366 40.7673 120.85 40.986C120.342 41.2048 119.799 41.3141 119.221 41.3141H109.624V38.9118H119.221C119.463 38.9118 119.694 38.8649 119.913 38.7712C120.131 38.6774 120.323 38.5485 120.487 38.3844C120.651 38.2204 120.78 38.029 120.874 37.8102C120.975 37.5915 121.026 37.3571 121.026 37.1071V25.7048H114.428C113.85 25.7126 113.307 25.8298 112.799 26.0563C112.299 26.2751 111.862 26.5758 111.487 26.9587C111.112 27.3337 110.815 27.7751 110.596 28.2829C110.385 28.7907 110.28 29.3337 110.28 29.9118C110.28 30.4899 110.385 31.0329 110.596 31.5407C110.815 32.0407 111.112 32.4821 111.487 32.8649C111.862 33.2399 112.299 33.5407 112.799 33.7673C113.307 33.986 113.85 34.0993 114.428 34.1071H119.831V36.5094H114.428C113.522 36.5016 112.67 36.3258 111.874 35.9821C111.077 35.6305 110.381 35.1579 109.788 34.5641C109.202 33.9626 108.737 33.2633 108.393 32.4665C108.049 31.6696 107.877 30.818 107.877 29.9118C107.877 29.0055 108.049 28.154 108.393 27.3571C108.737 26.5602 109.202 25.8649 109.788 25.2712C110.381 24.6696 111.077 24.1969 111.874 23.8532C112.67 23.5016 113.522 23.3219 114.428 23.3141H123.428V37.1071Z" fill="#02C9DE"/>
<path d="M130.073 34.7048C130.073 34.9548 130.022 35.1891 129.92 35.4079C129.827 35.6266 129.698 35.818 129.534 35.9821C129.37 36.1462 129.178 36.2751 128.959 36.3688C128.741 36.4626 128.51 36.5094 128.268 36.5094C128.018 36.5094 127.784 36.4626 127.565 36.3688C127.354 36.2751 127.167 36.1462 127.002 35.9821C126.838 35.818 126.709 35.6266 126.616 35.4079C126.522 35.1891 126.475 34.9548 126.475 34.7048C126.475 34.4626 126.522 34.2321 126.616 34.0133C126.709 33.7946 126.838 33.6032 127.002 33.4391C127.167 33.2751 127.354 33.1462 127.565 33.0524C127.784 32.9587 128.018 32.9118 128.268 32.9118C128.51 32.9118 128.741 32.9587 128.959 33.0524C129.178 33.1462 129.37 33.2751 129.534 33.4391C129.698 33.6032 129.827 33.7946 129.92 34.0133C130.022 34.2321 130.073 34.4626 130.073 34.7048ZM137.397 36.5094H134.995V25.7048H131.397V23.3141H134.995V18.5094H137.397V23.3141H145.799V25.7048H137.397V36.5094ZM162.885 27.5094C162.885 28.0954 162.776 28.6423 162.557 29.1501C162.338 29.6579 162.038 30.1032 161.655 30.486C161.28 30.861 160.834 31.1579 160.319 31.3766C159.811 31.5954 159.268 31.7048 158.69 31.7048H149.491C149.663 32.0563 149.877 32.3805 150.135 32.6774C150.393 32.9743 150.682 33.2282 151.002 33.4391C151.323 33.6501 151.67 33.8141 152.045 33.9313C152.428 34.0485 152.827 34.1071 153.241 34.1071H161.092V36.5094H153.241C152.334 36.5016 151.483 36.3258 150.686 35.9821C149.889 35.6305 149.194 35.1579 148.6 34.5641C148.014 33.9626 147.549 33.2633 147.206 32.4665C146.862 31.6696 146.69 30.818 146.69 29.9118C146.69 29.0055 146.862 28.154 147.206 27.3571C147.549 26.5602 148.014 25.8649 148.6 25.2712C149.194 24.6696 149.889 24.1969 150.686 23.8532C151.483 23.5016 152.334 23.3219 153.241 23.3141H158.69C159.268 23.3141 159.811 23.4235 160.319 23.6423C160.834 23.861 161.28 24.1618 161.655 24.5446C162.038 24.9196 162.338 25.361 162.557 25.8688C162.776 26.3766 162.885 26.9235 162.885 27.5094ZM158.69 29.3141C158.932 29.3141 159.163 29.2673 159.381 29.1735C159.6 29.0798 159.792 28.9508 159.956 28.7868C160.12 28.6227 160.249 28.4313 160.342 28.2126C160.436 27.9938 160.483 27.7594 160.483 27.5094C160.483 27.2673 160.436 27.0368 160.342 26.818C160.249 26.5993 160.12 26.4079 159.956 26.2438C159.792 26.0798 159.6 25.9508 159.381 25.8571C159.163 25.7555 158.932 25.7048 158.69 25.7048H153.241C152.709 25.7048 152.209 25.7985 151.741 25.986C151.28 26.1735 150.866 26.4313 150.499 26.7594C150.139 27.0798 149.838 27.4626 149.596 27.9079C149.362 28.3454 149.209 28.8141 149.139 29.3141H158.69ZM178.811 36.5094H170.959C170.053 36.5016 169.202 36.3258 168.405 35.9821C167.608 35.6305 166.913 35.1579 166.319 34.5641C165.733 33.9626 165.268 33.2633 164.924 32.4665C164.581 31.6696 164.409 30.818 164.409 29.9118C164.409 29.0055 164.581 28.154 164.924 27.3571C165.268 26.5524 165.733 25.8532 166.319 25.2594C166.913 24.6579 167.608 24.1852 168.405 23.8415C169.202 23.4899 170.053 23.3141 170.959 23.3141H178.811V25.7048H170.959C170.381 25.7126 169.838 25.8298 169.331 26.0563C168.831 26.2751 168.393 26.5758 168.018 26.9587C167.643 27.3337 167.346 27.7751 167.127 28.2829C166.917 28.7907 166.811 29.3337 166.811 29.9118C166.811 30.4899 166.917 31.0329 167.127 31.5407C167.346 32.0485 167.643 32.4938 168.018 32.8766C168.393 33.2516 168.831 33.5524 169.331 33.779C169.838 33.9977 170.381 34.1071 170.959 34.1071H178.811V36.5094ZM196.999 36.5094H194.596V29.9118C194.596 29.3337 194.487 28.7907 194.268 28.2829C194.049 27.7751 193.752 27.3337 193.377 26.9587C193.002 26.5758 192.561 26.2751 192.053 26.0563C191.553 25.8298 191.014 25.7126 190.436 25.7048H183.838V36.5094H181.436V18.5094H183.838V23.3141H190.436C191.342 23.3141 192.194 23.4899 192.991 23.8415C193.788 24.1852 194.483 24.6579 195.077 25.2594C195.67 25.8532 196.139 26.5524 196.483 27.3571C196.827 28.154 196.999 29.0055 196.999 29.9118V36.5094Z" fill="#E8E8EB"/>
<defs>
<filter id="filter0_d_36_2" x="8.61792" y="7.63918" width="44.0027" height="44.0027" filterUnits="userSpaceOnUse" color-interpolation-filters="sRGB">
<feFlood flood-opacity="0" result="BackgroundImageFix"/>
<feColorMatrix in="SourceAlpha" type="matrix" values="0 0 0 0 0 0 0 0 0 0 0 0 0 0 0 0 0 0 127 0" result="hardAlpha"/>
<feOffset dx="3" dy="2"/>
<feGaussianBlur stdDeviation="8.5"/>
<feComposite in2="hardAlpha" operator="out"/>
<feColorMatrix type="matrix" values="0 0 0 0 0 0 0 0 0 0 0 0 0 0 0 0 0 0 0.45 0"/>
<feBlend mode="screen" in2="BackgroundImageFix" result="effect1_dropShadow_36_2"/>
<feBlend mode="normal" in="SourceGraphic" in2="effect1_dropShadow_36_2" result="shape"/>
</filter>
<filter id="filter1_d_36_2" x="3.00934" y="2.01776" width="54.0054" height="54.0054" filterUnits="userSpaceOnUse" color-interpolation-filters="sRGB">
<feFlood flood-opacity="0" result="BackgroundImageFix"/>
<feColorMatrix in="SourceAlpha" type="matrix" values="0 0 0 0 0 0 0 0 0 0 0 0 0 0 0 0 0 0 127 0" result="hardAlpha"/>
<feOffset dx="3" dy="2"/>
<feGaussianBlur stdDeviation="8.5"/>
<feComposite in2="hardAlpha" operator="out"/>
<feColorMatrix type="matrix" values="0 0 0 0 0 0 0 0 0 0 0 0 0 0 0 0 0 0 0.45 0"/>
<feBlend mode="screen" in2="BackgroundImageFix" result="effect1_dropShadow_36_2"/>
<feBlend mode="normal" in="SourceGraphic" in2="effect1_dropShadow_36_2" result="shape"/>
</filter>
<linearGradient id="paint0_linear_36_2" x1="177.423" y1="22.5639" x2="222.89" y2="38.2398" gradientUnits="userSpaceOnUse">
<stop stop-color="#02C9DE"/>
<stop offset="1" stop-color="white" stop-opacity="0.67"/>
</linearGradient>
<linearGradient id="paint1_linear_36_2" x1="171.254" y1="36.0402" x2="219.292" y2="33.726" gradientUnits="userSpaceOnUse">
<stop stop-color="#02C9DE"/>
<stop offset="1" stop-color="white" stop-opacity="0.67"/>
</linearGradient>
</defs>
</svg>
