<svg width="221" height="64" viewBox="0 0 221 64" fill="none" xmlns="http://www.w3.org/2000/svg"><path d="M215.212 25.424c1.172.018 2.149-.918 2.055-2.086a21.72 21.72 0 0 0-1.461-6.271 21.809 21.809 0 0 0-4.643-7.165 21.952 21.952 0 0 0-7.052-4.85 22.086 22.086 0 0 0-6.285-1.661c-1.158-.13-2.12.81-2.14 1.974-.02 1.168.914 2.118 2.072 2.274a17.83 17.83 0 0 1 4.658 1.29 17.71 17.71 0 0 1 5.689 3.912 17.579 17.579 0 0 1 3.746 5.78 17.517 17.517 0 0 1 1.14 4.644c.122 1.169 1.046 2.14 2.221 2.159Z" fill="url(#a)"/><path d="M207.687 24.567c1.008-.385 1.665-1.396 1.426-2.448a12.734 12.734 0 0 0-3.199-5.956c-1.458-1.54-3.653-2.822-5.761-3.858-1.178-.58-2.588-.018-3.104 1.19a2.318 2.318 0 0 0 1.221 3.043c1.426.622 2.798 1.32 3.862 2.445 1.06 1.12 1.8 2.646 2.419 4.18.502 1.244 1.883 1.882 3.136 1.404Z" fill="url(#b)"/><rect x="27.982" y="52.026" width="3.998" height="20.732" rx="1.999" transform="rotate(-114.418 27.982 52.026)" fill="#C4C4C4"/><rect x="32.886" y="58.501" width="3.902" height="16.948" rx="1.951" transform="rotate(-115.032 32.886 58.5)" fill="#02C9DE"/><path d="M43.41 32.85c1.07.397 2.271-.146 2.557-1.252a20 20 0 1 0-28.233 12.93c1.024.506 2.22-.048 2.619-1.119.397-1.07-.156-2.25-1.166-2.783A15.864 15.864 0 1 1 42.063 30.15c-.255 1.113.276 2.302 1.346 2.7Z" fill="#C4C4C4"/><g filter="url(#c)"><path d="M25.895 32.334a5 5 0 1 1 3.449-9.387 5 5 0 0 1-3.449 9.387Zm2.578-7.018a2.476 2.476 0 1 0-1.708 4.649 2.476 2.476 0 0 0 1.708-4.649Z" fill="#01C9DE"/></g><g filter="url(#d)"><mask id="e" fill="#fff"><path d="M23.564 36.407c-5.184-1.904-7.843-7.65-5.939-12.835 1.905-5.184 7.651-7.843 12.835-5.938 5.184 1.904 7.843 7.65 5.939 12.835-1.905 5.184-7.651 7.843-12.835 5.938Zm6.463-17.592a8.742 8.742 0 1 0-6.03 16.411 8.742 8.742 0 0 0 6.03-16.411Z"/></mask><path d="M23.564 36.407c-5.184-1.904-7.843-7.65-5.939-12.835 1.905-5.184 7.651-7.843 12.835-5.938 5.184 1.904 7.843 7.65 5.939 12.835-1.905 5.184-7.651 7.843-12.835 5.938Zm6.463-17.592a8.742 8.742 0 1 0-6.03 16.411 8.742 8.742 0 0 0 6.03-16.411Z" fill="#01C9DE"/><path d="M23.564 36.407c-5.184-1.904-7.843-7.65-5.939-12.835 1.905-5.184 7.651-7.843 12.835-5.938 5.184 1.904 7.843 7.65 5.939 12.835-1.905 5.184-7.651 7.843-12.835 5.938Zm6.463-17.592a8.742 8.742 0 1 0-6.03 16.411 8.742 8.742 0 0 0 6.03-16.411Z" stroke="#DEEFF3" stroke-width="2" stroke-dasharray="2 2" mask="url(#e)"/></g><path d="M57.838 36.51h-2.402V23.313h9a6.27 6.27 0 0 1 2.555.527 6.539 6.539 0 0 1 2.086 1.418 6.6 6.6 0 0 1 1.406 2.098 6.38 6.38 0 0 1 .516 2.555v6.597h-2.403v-6.597c0-.578-.11-1.121-.328-1.63a4.205 4.205 0 0 0-.89-1.323 4.108 4.108 0 0 0-1.325-.903 4.006 4.006 0 0 0-1.617-.351h-6.598v10.804Zm31.758-9c0 .585-.11 1.132-.328 1.64a4.168 4.168 0 0 1-2.238 2.227 4.072 4.072 0 0 1-1.63.328h-9.198c.172.351.386.675.644.972a4.118 4.118 0 0 0 1.91 1.254c.383.117.782.176 1.196.176h7.851v2.402h-7.851a6.525 6.525 0 0 1-2.555-.527 6.802 6.802 0 0 1-2.086-1.418 6.886 6.886 0 0 1-1.395-2.097 6.381 6.381 0 0 1-.515-2.555c0-.906.172-1.758.516-2.555a6.737 6.737 0 0 1 1.394-2.086 6.537 6.537 0 0 1 2.086-1.418 6.396 6.396 0 0 1 2.555-.539H85.4c.578 0 1.121.11 1.629.328.515.219.96.52 1.336.903a4.11 4.11 0 0 1 1.23 2.964Zm-4.195 1.804c.242 0 .473-.047.691-.14a1.815 1.815 0 0 0 .961-.961c.094-.22.14-.454.14-.704 0-.242-.046-.472-.14-.691a1.814 1.814 0 0 0-.96-.96 1.622 1.622 0 0 0-.692-.153h-5.45a4 4 0 0 0-1.5.281 4.23 4.23 0 0 0-2.145 1.922 4.19 4.19 0 0 0-.456 1.406h9.55Zm21.891 7.195h-3.422l-5.145-4.968-5.039 4.968h-3.434l6.82-6.574-6.82-6.62h3.434l13.606 13.194Zm0-13.195-5.708 5.567-1.722-1.536 4.008-4.03h3.422Zm16.136 13.793c0 .586-.113 1.133-.34 1.64a4.23 4.23 0 0 1-.902 1.337c-.375.383-.82.683-1.336.902a4.074 4.074 0 0 1-1.629.328h-9.597v-2.402h9.597c.242 0 .473-.047.692-.14a1.822 1.822 0 0 0 .961-.962c.101-.218.152-.453.152-.703V25.705h-6.598a4.093 4.093 0 0 0-1.629.351c-.5.22-.937.52-1.312.903a4.209 4.209 0 0 0-.891 1.324 4.202 4.202 0 0 0-.316 1.629c0 .578.105 1.12.316 1.629.219.5.516.941.891 1.324a4.4 4.4 0 0 0 1.312.902 4.222 4.222 0 0 0 1.629.34h5.403v2.402h-5.403a6.52 6.52 0 0 1-2.554-.527 6.791 6.791 0 0 1-2.086-1.418 6.889 6.889 0 0 1-1.395-2.097 6.377 6.377 0 0 1-.516-2.555c0-.906.172-1.758.516-2.555a6.74 6.74 0 0 1 1.395-2.086 6.527 6.527 0 0 1 2.086-1.418 6.391 6.391 0 0 1 2.554-.539h9v13.793Z" fill="#02C9DE"/><path d="M130.073 34.705c0 .25-.051.484-.153.703a1.802 1.802 0 0 1-2.355.96 1.865 1.865 0 0 1-.563-.386 1.802 1.802 0 0 1-.386-1.969c.093-.218.222-.41.386-.574.165-.164.352-.293.563-.387.219-.093.453-.14.703-.14.242 0 .473.047.691.14a1.816 1.816 0 0 1 .961.961c.102.22.153.45.153.692Zm7.324 1.804h-2.402V25.705h-3.598v-2.39h3.598v-4.806h2.402v4.805h8.402v2.39h-8.402V36.51Zm25.488-9a4.1 4.1 0 0 1-.328 1.641 4.245 4.245 0 0 1-.902 1.336 4.176 4.176 0 0 1-1.336.89 4.074 4.074 0 0 1-1.629.329h-9.199c.172.351.386.675.644.972a4.13 4.13 0 0 0 1.91 1.254c.383.117.782.176 1.196.176h7.851v2.402h-7.851a6.525 6.525 0 0 1-2.555-.527 6.803 6.803 0 0 1-2.086-1.418 6.868 6.868 0 0 1-1.394-2.097 6.377 6.377 0 0 1-.516-2.555c0-.906.172-1.758.516-2.555a6.72 6.72 0 0 1 1.394-2.086 6.538 6.538 0 0 1 2.086-1.418 6.396 6.396 0 0 1 2.555-.539h5.449c.578 0 1.121.11 1.629.328.515.219.961.52 1.336.903a4.108 4.108 0 0 1 1.23 2.964Zm-4.195 1.805c.242 0 .473-.047.691-.14a1.814 1.814 0 0 0 .961-.961 1.77 1.77 0 0 0 .141-.704 1.802 1.802 0 0 0-1.102-1.652 1.618 1.618 0 0 0-.691-.152h-5.449c-.532 0-1.032.094-1.5.281a4.217 4.217 0 0 0-2.145 1.922 4.19 4.19 0 0 0-.457 1.406h9.551Zm20.121 7.195h-7.852a6.524 6.524 0 0 1-2.554-.527 6.803 6.803 0 0 1-2.086-1.418 6.889 6.889 0 0 1-1.395-2.097 6.393 6.393 0 0 1-.515-2.555c0-.906.172-1.758.515-2.555a6.54 6.54 0 0 1 3.481-3.516 6.256 6.256 0 0 1 2.554-.527h7.852v2.39h-7.852a4.084 4.084 0 0 0-1.628.352c-.5.22-.938.52-1.313.903a4.209 4.209 0 0 0-.891 1.324 4.22 4.22 0 0 0-.316 1.629c0 .578.106 1.12.316 1.629.219.507.516.953.891 1.336.375.375.813.675 1.313.902.507.219 1.05.328 1.628.328h7.852v2.402Zm18.188 0h-2.403v-6.597c0-.578-.109-1.121-.328-1.63a4.209 4.209 0 0 0-.891-1.323 4.105 4.105 0 0 0-1.324-.903 4.006 4.006 0 0 0-1.617-.351h-6.598v10.804h-2.402v-18h2.402v4.805h6.598a6.26 6.26 0 0 1 2.555.527 6.616 6.616 0 0 1 3.492 3.516 6.38 6.38 0 0 1 .516 2.555v6.597Z" fill="#E8E8EB"/><defs><linearGradient id="a" x1="177.423" y1="22.564" x2="222.89" y2="38.24" gradientUnits="userSpaceOnUse"><stop stop-color="#02C9DE"/><stop offset="1" stop-color="#fff" stop-opacity=".67"/></linearGradient><linearGradient id="b" x1="171.254" y1="36.04" x2="219.292" y2="33.726" gradientUnits="userSpaceOnUse"><stop stop-color="#02C9DE"/><stop offset="1" stop-color="#fff" stop-opacity=".67"/></linearGradient><filter id="c" x="8.618" y="7.639" width="44.003" height="44.003" filterUnits="userSpaceOnUse" color-interpolation-filters="sRGB"><feFlood flood-opacity="0" result="BackgroundImageFix"/><feColorMatrix in="SourceAlpha" values="0 0 0 0 0 0 0 0 0 0 0 0 0 0 0 0 0 0 127 0" result="hardAlpha"/><feOffset dx="3" dy="2"/><feGaussianBlur stdDeviation="8.5"/><feComposite in2="hardAlpha" operator="out"/><feColorMatrix values="0 0 0 0 0 0 0 0 0 0 0 0 0 0 0 0 0 0 0.45 0"/><feBlend mode="screen" in2="BackgroundImageFix" result="effect1_dropShadow_36_2"/><feBlend in="SourceGraphic" in2="effect1_dropShadow_36_2" result="shape"/></filter><filter id="d" x="3.009" y="2.018" width="54.005" height="54.005" filterUnits="userSpaceOnUse" color-interpolation-filters="sRGB"><feFlood flood-opacity="0" result="BackgroundImageFix"/><feColorMatrix in="SourceAlpha" values="0 0 0 0 0 0 0 0 0 0 0 0 0 0 0 0 0 0 127 0" result="hardAlpha"/><feOffset dx="3" dy="2"/><feGaussianBlur stdDeviation="8.5"/><feComposite in2="hardAlpha" operator="out"/><feColorMatrix values="0 0 0 0 0 0 0 0 0 0 0 0 0 0 0 0 0 0 0.45 0"/><feBlend mode="screen" in2="BackgroundImageFix" result="effect1_dropShadow_36_2"/><feBlend in="SourceGraphic" in2="effect1_dropShadow_36_2" result="shape"/></filter></defs></svg>